/* XPM */
static char *_39fcce86d3440a1922d58694c882c35[] = {
/* columns rows colors chars-per-pixel */
"25 64 184 2 ",
"   c #023E44",
".  c #01474D",
"X  c #01484D",
"o  c #014D53",
"O  c #015154",
"+  c #01575A",
"@  c #025A5C",
"#  c #215E5F",
"$  c #23625E",
"%  c #025F62",
"&  c #025C68",
"*  c #225E62",
"=  c #2C5D60",
"-  c #016265",
";  c #0D6564",
":  c #046867",
">  c #0C6864",
",  c #02656C",
"<  c #0C646A",
"1  c #026B6D",
"2  c #0C6C6C",
"3  c #156761",
"4  c #116A6A",
"5  c #01716E",
"6  c #0B716E",
"7  c #026E72",
"8  c #0A6F71",
"9  c #017375",
"0  c #0D7574",
"q  c #017877",
"w  c #027679",
"e  c #0B757B",
"r  c #027B7C",
"t  c #0B7B7D",
"y  c #157D7F",
"u  c #236163",
"i  c #02827F",
"p  c #027E81",
"a  c #0C7F82",
"s  c #147D80",
"d  c #177F88",
"f  c #028384",
"g  c #0C8285",
"h  c #028A87",
"j  c #028689",
"k  c #0B868A",
"l  c #028B8C",
"z  c #0E8C8E",
"x  c #138384",
"c  c #1F8785",
"v  c #13808A",
"b  c #128B8E",
"n  c #01928D",
"m  c #1B918C",
"M  c #028D91",
"N  c #108F91",
"B  c #1C8F91",
"V  c #029394",
"C  c #0B9193",
"Z  c #059A97",
"A  c #059799",
"S  c #029B9C",
"D  c #0C9C9D",
"F  c #149294",
"G  c #129598",
"H  c #129C9C",
"J  c #268A87",
"K  c #268B89",
"L  c #2E8C8C",
"P  c #3B8E93",
"I  c #2C9292",
"U  c #3A9296",
"Y  c #3C9599",
"T  c #3C999C",
"R  c #02A09F",
"E  c #0EA39E",
"W  c #10A19F",
"Q  c #039EA2",
"!  c #099BA0",
"~  c #149EA0",
"^  c #03A2A3",
"/  c #0BA3A4",
"(  c #05A6A9",
")  c #0BA6A8",
"_  c #05A8AA",
"`  c #0EAAAA",
"'  c #13A5A3",
"]  c #1BA5A2",
"[  c #13A8A7",
"{  c #14ABAC",
"}  c #1BACAD",
"|  c #1DB0AF",
" . c #1DAEB1",
".. c #0EB0B1",
"X. c #14B1B4",
"o. c #1EB2B2",
"O. c #25A9A6",
"+. c #25A7A9",
"@. c #21ADAD",
"#. c #2BADAB",
"$. c #3FA1A2",
"%. c #3DA7AA",
"&. c #30AFAD",
"*. c #23AFB0",
"=. c #37AEB3",
"-. c #23B3B4",
";. c #2CB4B4",
":. c #25B8B7",
">. c #25B6B9",
",. c #2BB7BA",
"<. c #2DBBBE",
"1. c #30B3B3",
"2. c #3DB1B0",
"3. c #34B8B4",
"4. c #30B4B9",
"5. c #3AB6BA",
"6. c #35B9BD",
"7. c #3DBABD",
"8. c #409EA2",
"9. c #41B7B6",
"0. c #49B7B7",
"q. c #42B9B7",
"w. c #44B6BC",
"e. c #43BABA",
"r. c #4ABDBC",
"t. c #57BDBE",
"y. c #3BC0BD",
"u. c #4BC1BE",
"i. c #3BBEC0",
"p. c #46BDC0",
"a. c #4DBFC1",
"s. c #5CBDC3",
"d. c #60BEC4",
"f. c #37C0C0",
"g. c #3CC9C3",
"h. c #43C4C3",
"j. c #4BC1C3",
"k. c #4BC8C3",
"l. c #54C3C3",
"z. c #5CC2C3",
"x. c #52C2C8",
"c. c #5EC3C8",
"v. c #53CAC8",
"b. c #5FCACA",
"n. c #62C2C4",
"m. c #6BC5C6",
"M. c #64C3CB",
"N. c #6EC7C8",
"B. c #67CACB",
"V. c #6CC9CB",
"C. c #73C6C6",
"Z. c #78C5C7",
"A. c #71C8C7",
"S. c #74C7C9",
"D. c #78C7CB",
"F. c #74C9CB",
"G. c #7ACBCD",
"H. c #73CBD2",
"J. c #7ACFD1",
"K. c #75D5DA",
"L. c #80CCCE",
"P. c #81CCD1",
"I. c #82D1D4",
"U. c #8AD2D6",
"Y. c #8CD6D9",
"T. c #93DBDC",
"R. c #9AD8DD",
"E. c #9DDEE3",
"W. c #A4DFE6",
"Q. c #9AE0E2",
"!. c #9CE5F2",
"~. c #A6E1E4",
"^. c #ADE0E6",
"/. c #ADE7EC",
"(. c #B3E4EC",
"). c #B9E7EB",
"_. c #B6E8EB",
"`. c #BAE8EB",
"'. c #BEECF4",
"]. c #C6E9F1",
"[. c #CDF1F7",
"{. c #D4F2F9",
"}. c #DBF3FB",
"|. c #E0F5FD",
/* pixels */
"9 q 9 4 4 2 2 4 8 4 2 2 2 > > > 3 ; < 4 2 4 2 2 3 ",
"9 9 , g F r p r p f w w t 9 9 9 9 9 9 w q q F i 6 ",
"7 e & < x p f r r w w q 9 9 9 9 w r r r 9 2 b h 6 ",
"7 e 7 , 9 f i r r r r q w 9 9 9 q w r r 9 , 9 n 0 ",
"9 w r w p p i r i r q q 9 q 9 q q r r r 9 9 r n 0 ",
"w p f r p r 9 1 : @ + + + + + + + + 6 r i f n S 0 ",
"9 f r r p r 9 - + X X X X X X X X   % h f M S S 0 ",
"9 r f f p r w 9 6 1 1 1 1 1 1 8 < O : h l M S S t ",
"9 r p p p r w 9 9 9 w 9 w 9 9 w 1 + - h l V R S t ",
"w p p p p p r w 9 9 7 w w w w p : o - l l V ^ S t ",
"q r p p r r w w 9 9 7 9 9 9 r r 1 o : M n V R ^ t ",
"r r w p p w r w 9 7 9 9 r r r r 1 o : n n S ^ R t ",
"9 r r r r r w w 7 9 9 9 9 r r r , o : M V S R D a ",
"q r r r w w w w 9 7 9 e w r r r 1 o 1 M S S R ^ g ",
"9 r w w w w w w 9 9 9 w w w r i 1 o 1 V V R ^ ^ g ",
"q w r w 9 w w w w 9 w w r t i i 6 O 1 V A ^ R S f ",
"9 r r w 9 9 w p 9 w w w r r i f 8 O 1 D S S ^ ( a ",
"9 r w 9 9 9 p r w w w r r r i f 7 O 5 S S R ) { x ",
"q r 9 9 7 7 e w 9 w 9 r r r j f 7 O 5 D R ^ _ } x ",
"q r 9 9 9 7 p p w w r 9 r i f f 5 O 5 R ^ ^ { } x ",
"7 p w 7 7 9 p p 9 r r r r p j h 9 o 9 ^ ^ _  .| x ",
"7 7 7 7 7 9 p a r w r r r j j h 8 o 7 ^ ^ ^  .| c ",
"7 9 7 7 7 w p a r r r r f f j h w O 9 ( ^ (  . .i ",
"7 7 7 7 7 p j p r r r r f j j l r O 9 ^ ^ ) o. .x ",
"7 7 7 7 7 w j f r w r p f j j l e o e ( ^ ` >.>.x ",
"7 7 9 7 9 w j f w r r p j h j n p + 9 ( Q ` >.6.x ",
", 7 7 7 9 w h f r r r f j j n n f % 9 _ Q X.>.4.x ",
"1 7 7 9 9 w M j p p r f j j M n f % 9 _ ` o.<.i.x ",
"1 7 9 9 9 w M f p r p f j l M A j % 9 ^ { -.i.7.g ",
"1 1 1 w w r M j p p f j j M A A f - t _ ) ;.H.7.g ",
"1 1 % , r r M h p p f j M V V A h - e ..D +.!.p.g ",
"1 7 % o 7 p V h p f j l M n V S l - q ) j p =.w.x ",
"1 1 1 1 9 p A M p f j l M V A ! j - w ^ l f #.s.x ",
"5 9 9 5 9 r S V j j j M M M A Q M % r ^ Z W t.n.d ",
"9 9 9 r r r S A j j l M V V ! Q k - s -.@.7.H.d.v ",
"9 9 w w r r / A j j j M V S Q Q l & s -.5.a.v.z.x ",
"7 9 w r w p } S j j l M V A Q Q M - s -.7.x.g.l.c ",
"9 9 w r r j } ! l l M M V S Q Q M & s :.6.M.F.s.x ",
"7 w r p w p } / l l M V A Q Q Q M % s ,.6.n.Z.0.g ",
"e w r r p p } / l M V V S Q Q Q M - x <.y.z.Z.9.g ",
"9 w w p p p } / M M V A S S Q Q M % x 7.j.m.F.9.g ",
"9 w e p p p } ^ M M V V S Q S Q M & s y.z.F.C.9.g ",
"7 w p p p p *.^ M M M A S R S ^ C - c h.z.F.C.7.x ",
"9 w r p p j w.' M M V A S S ^ ( D 1 K k.n.F.C.e.g ",
"9 w r p p g s.*.M M S S S R R ^ D 5 K k.n.F.C.e.g ",
"9 w r r p k d.1.V V S S S R ^ ( D 5 J b.N.Z.m.e.g ",
"9 r r f r g d.1.V A S S S ^ ^ ( D 5 K B.A.F.l.e.v ",
"9 w r r f g n.1.M S R S S ^ ) X.W 5 K B.Z.N.l.6.g ",
"9 r r r r z J.j.S S S R R ^ ) o.H 9 K B.Z.N.u.-.g ",
"e r p r f z I.x.D A S R R ^ ` o.W 5 L V.Z.N.u.| g ",
"9 r r r i z I.l.D S S S ^ ^  .-.W 5 P J.C.N.u.| g ",
"9 r r g f z I.l.D S S R ^ ^  .*.' h U G.C.N.u.| g ",
"9 i p f j z ~.V.D S S R R ^ |  .' h Y J.C.N.u.| g ",
"q r i j j F ).L.! S R ^ ^ `  .*.{ h T G.C.m.r.| g ",
"r r f h l G _.L.' Q ^ ^ ^  .*.;.*.n $.G.C.n.u.| g ",
"9 i f l n H _.T.E S Q ^ ^  .*.;.-.n $.G.C.t.e.| g ",
"q i j j l H `.E.O./ ) [ } ;.;.r.4.S 0.G.F.z.3.| g ",
"q f f j M H _.^.Y.U.Y.T.R.~.W.(.V.#.V.F.F.l.&. .g ",
"9 f f N / H '.{.[.{.{.}.}.}.}.}.]./.R.Z.l.%.K.-.g ",
"9 h 9 2 C Z r.n.z.c.c.c.B.H.H.I.Y.~.U.D.2.t 8.*.f ",
"q r 9 % f S A S R S Q ^ ` } >.p.t.m.C.m.O.5 5 } k ",
"q i j C A S ( ( ( ( ^ } -.,.p.x.G.G.G.l.] n H o.k ",
"9 f j f f f f f j j f k M z B B I I I m h i g k e ",
"2 7 4 u u u u $ u u * * * * * * * * # u $ u $ * = "
};
