/* XPM */
static char *_9787e00f3fd40a8c088ecd59cdc3684[] = {
/* columns rows colors chars-per-pixel */
"57 64 256 2 ",
"   c #080705",
".  c #302F0D",
"X  c #1D3336",
"o  c #1C3438",
"O  c #1D3838",
"+  c #29292B",
"@  c #302A2E",
"#  c #2A2E31",
"$  c #322C32",
"%  c #2D3736",
"&  c #333234",
"*  c #3A393B",
"=  c #33332A",
"-  c #423A33",
";  c #3F4021",
":  c #396D3C",
">  c #46461C",
",  c #4A5514",
"<  c #5E6118",
"1  c #68690B",
"2  c #444F21",
"3  c #586C2A",
"4  c #627031",
"5  c #1B4B4C",
"6  c #19484C",
"7  c #005C5D",
"8  c #195252",
"9  c #185855",
"0  c #204A49",
"q  c #234D50",
"w  c #0E6253",
"e  c #20615F",
"r  c #015D62",
"t  c #015661",
"y  c #1A5A65",
"u  c #195864",
"i  c #215C69",
"p  c #016366",
"a  c #01646A",
"s  c #036B6E",
"d  c #0A6C6D",
"f  c #0E6568",
"g  c #1B646A",
"h  c #08716D",
"j  c #036D71",
"k  c #096E71",
"l  c #046975",
"z  c #126E71",
"x  c #027274",
"c  c #0A7072",
"v  c #057976",
"b  c #02757A",
"n  c #037B7C",
"m  c #0B7C7C",
"M  c #0D777A",
"N  c #157777",
"B  c #25686C",
"V  c #3D6B6F",
"C  c #29726E",
"Z  c #266D75",
"A  c #296E77",
"S  c #286F78",
"D  c #266F79",
"F  c #2E7172",
"G  c #357676",
"H  c #494649",
"J  c #475B5E",
"K  c #495A5F",
"L  c #585659",
"P  c #55514B",
"I  c #625D5E",
"U  c #465E60",
"Y  c #495D61",
"T  c #4A5F6A",
"R  c #5E5E62",
"E  c #615D61",
"W  c #4C6065",
"Q  c #457274",
"!  c #52797E",
"~  c #646265",
"^  c #68656B",
"/  c #686A72",
"(  c #737274",
")  c #77777B",
"_  c #727776",
"`  c #716E44",
"'  c #877F00",
"]  c #807D7E",
"[  c #6F8F2A",
"{  c #02817F",
"}  c #0A807E",
"|  c #1C857F",
" . c #349679",
".. c #69BA7A",
"X. c #6F9445",
"o. c #79C272",
"O. c #8A8200",
"+. c #878100",
"@. c #908800",
"#. c #BCB506",
"$. c #8C883C",
"%. c #A09D3F",
"&. c #95924C",
"*. c #93AD46",
"=. c #9CB449",
"-. c #A2BC4A",
";. c #ABCA4E",
":. c #037D83",
">. c #077A85",
",. c #157A83",
"<. c #637E87",
"1. c #747F83",
"2. c #847C83",
"3. c #028384",
"4. c #0A8484",
"5. c #01878B",
"6. c #0B8689",
"7. c #018A8C",
"8. c #0B8C8C",
"9. c #008986",
"0. c #128485",
"q. c #12868B",
"w. c #148C8C",
"e. c #168889",
"r. c #08908F",
"t. c #028E91",
"y. c #0B8D92",
"u. c #138D92",
"i. c #1A8B93",
"p. c #019394",
"a. c #0B9393",
"s. c #019996",
"d. c #029699",
"f. c #019B9C",
"g. c #0D9C9C",
"h. c #0C9898",
"j. c #149294",
"k. c #1A9294",
"l. c #13969A",
"z. c #1C959A",
"x. c #139B9B",
"c. c #1C9C9D",
"v. c #1D908E",
"b. c #25928D",
"n. c #289999",
"m. c #359A99",
"M. c #268D8E",
"N. c #03A19E",
"B. c #0CA19E",
"V. c #18A29D",
"C. c #28A098",
"Z. c #3AA69D",
"A. c #029EA0",
"S. c #089EA2",
"D. c #149DA2",
"F. c #1C9DA0",
"G. c #239FA2",
"H. c #2D9AA3",
"J. c #03A3A3",
"K. c #0AA4A5",
"L. c #0CA6A8",
"P. c #0EA9AA",
"I. c #05A8A7",
"U. c #14A3A3",
"Y. c #1BA5A5",
"T. c #1AA9A7",
"R. c #12A6AA",
"E. c #13AAAB",
"W. c #1CACAC",
"Q. c #18A7A7",
"!. c #1CB0AD",
"~. c #1CAEB1",
"^. c #16ACB0",
"/. c #1EB1B3",
"(. c #23A2A4",
"). c #2CA4A4",
"_. c #22A5A9",
"`. c #22ABAD",
"'. c #2AABAC",
"]. c #2BA7A8",
"[. c #33ABAB",
"{. c #34A5A6",
"}. c #22B1AD",
"|. c #2BB1AC",
" X c #22AFB2",
".X c #2AAEB1",
"XX c #3CADB2",
"oX c #34ACB0",
"OX c #22B2B3",
"+X c #2BB3B4",
"@X c #2CB6B9",
"#X c #2EB9BB",
"$X c #27B6B8",
"%X c #33B3B3",
"&X c #39B3B4",
"*X c #34B6BA",
"=X c #3AB6BB",
"-X c #35B9BC",
";X c #39BBBC",
":X c #35BCB7",
">X c #3CB1AF",
",X c #768688",
"<X c #738C8D",
"1X c #43A8A9",
"2X c #43B2B4",
"3X c #44BABC",
"4X c #4DBABE",
"5X c #48B5B8",
"6X c #59BAB9",
"7X c #43A6B1",
"8X c #6AC58C",
"9X c #3BBEC1",
"0X c #36BBC0",
"qX c #48BEC1",
"wX c #52BFC5",
"eX c #5BBEC5",
"rX c #3EC0C2",
"tX c #4BC6C8",
"yX c #59C5C9",
"uX c #5ACED1",
"iX c #5BD1D5",
"pX c #6DC9CB",
"aX c #66C4CA",
"sX c #73C6CA",
"dX c #73C8C7",
"fX c #67CDD4",
"gX c #77CED2",
"hX c #7BD4D9",
"jX c #6DD2D4",
"kX c #7EE3E8",
"lX c #6FD8E2",
"zX c #85858A",
"xX c #909396",
"cX c #939CA0",
"vX c #99A2A5",
"bX c #A5A6A8",
"nX c #B3B1B3",
"mX c #8BBEC4",
"MX c #91C4C7",
"NX c #86CED3",
"BX c #84D2D5",
"VX c #83D4DB",
"CX c #8BD6DB",
"ZX c #8BD9DB",
"AX c #87D7DA",
"SX c #92DADC",
"DX c #9BD9DA",
"FX c #86D1CD",
"GX c #A1D8DB",
"HX c #A7E4DE",
"JX c #9EDEE1",
"KX c #87D6E1",
"LX c #A4DEE7",
"PX c #8EE3E9",
"IX c #B1E5E8",
"UX c #C1EAF0",
/* pixels */
"X z 5.t.7.7.r.l.m v 3.9.4.7.h.6.x 5.t.7.7.a.6.h { 6.3.{ m 0.M b m v v 0.} v v v v m n n } c M n v m q.0.b n { 0.i ",
"X d 9.7.7.t.g.w.a n x.Y.U.L.D.b b h.R..X%X].h 7 w.%X'.U.U.>.l 6.U.Y.F.h.M d l.Y.U.U.U.Y.m s 8.V.V.U.l.M s g.U.`.D ",
"X d 9.s.7.7.t.4.s b k._.G.(.z.l b z._.'.XX{.v s i.yXyX-X Xb s k.OX@X@Xh.a a _.$X|.OX+X}.k a l.$XOX@Xh.a a Q.}.`.Z ",
"X k 9.s.p.n r p r r r r p p p r t p p r p p 7 7 r l M.n.j.n j m j.v.j.4.x s q.k.j.k.k.u.v s v j.j.u.6.b n U.`.`.Z ",
"X c 5.d.a.x t a a p p p p p p p p r p a p p p p r p a a a a p p p p p a a a r p p p p a p p p p p p a a 0.`._..XS ",
"o h j.oX6.b r x 3.3.3.4.3.3.4.3.9.4.5.6.4.6.4.6.6.6.n x x x x h x x x x v x x b x x x x b x x x x x b b z.%X*X.XA ",
"X h 8.q.b s r n p.s.s.f.f.J.K.E.W.W.W.}.}.OX@X.X%X*Xc.r.r.r.r.r.r.r.y.7.7.7.t.7.t.t.t.t.t.t.t.t.r.r.8.a.4XqXtXc.i ",
"X c 5.3.n s p n p.s.s.J.J.J.J.L.!./.OX$XOX$X0X-X-X#X-X-X*XOXOXOX X XW.W.R.K.J.J.J.J.J.J.J.J.J.J.J.J.S.R.hX5X6.>.u ",
"X k 5.s.a.x p n p.s.d.N.J.J.J.K.P.^. X/.OXOX$X-X*X*X*X-X9X%X+X$X X}. X X/.E.I.N.J.J.J.J.J.J.J.J.J.J.K.R.BX2X7.3.u ",
"X k 9.K.I.n 7 n r.p.s.f.f.J.A.I.E.E.!././.OX}.$X*X*X-X*X#X*X#X#XOXOX XOX/.}.!.R.K.J.J.J.J.J.J.I.J.J.J.R.AX3XU.x.g ",
"O c 7.U.K.n r n t.7.p.d.f.A.A.K.E.E.E.~.OXOX/.OX@X-X*X;X-X-X#X-X*XOX$XOXOX/.OX/.~.^.I.I.J.J.J.J.J.J.J._.ZX3XW. XA ",
"X d 8.W.K.n r n 7.7.t.d.f.f.A.A.J.P.E.W.OX/.OXOX+X@X*X*X*X*X9X;X*X$X#X$XOX/./.OX X/./.!.I.K.J.J.I.J.A.`.ZX3XW..XZ ",
"X h 7.W.E.4.p n 7.7.p.a.f.f.f.A.J.J.K.R.^.~.OXOXOX X#X-X-X-X-X=X-X*X-X#X$XOXOX/./. X/. X~.E.P.I.J.J.J.W.CX3XE..XS ",
"X d 8.+XE.3.r n 7.9.7.p.d.d.g.J.A.J.A.R.R.^././.OXOX$X0X-X=X-X-X*X-X-X0X#XOX/.OXOXOXOXOX X/./.^.E.K.J.`.KXwX%X'.Z ",
"o h k.{.3.x r n 7.7.7.p.p.d.s.f.A.A.A.L.R.~. XOX X$XOX#X9X0X*X*X-X;X-X-X-X#X/.$XOXOX/./.OX X XOX~.^.A. XVXaXPX).i ",
"o h 4.:.b l r b 5.9.7.7.t.d.s.f.A.A.K.A.S.^./. X XOX$X$X#X-X-X-X-X=X-X-X-X0X$X$X$X$X$X/././. X XOX~.R..XCXqX%X6.u ",
"X c 7.7.7.s t >.5.7.5.t.t.p.p.d.A.A.J.J.J.I.^.~. XOX$XOX$X0X-X-X*X;X-X-X*X*X-X-X-X@X$XOX/.OX/. X XOX/.%XZX>X{ { y ",
"X c 8.D.K.v 7 >.t.5.5.7.t.t.t.s.f.A.A.J.J.J.K.^. XOX X X X$X#X-X-X-X-X*X;X;X*X-X-X-X#X$X$XOXOXOX~.OX~.%XZX3XT.(.B ",
"X c 8.`./.m 7 >.t.5.7.7.7.7.p.p.d.f.J.J.J.J.A.L.~././. X X$X.X*X-X9X;X*X*X*X0X;X-X*X9X0X$XOXOXOXOX X X&XCX5XT..XD ",
"X h t.`./.>.7 >.t.7.7.7.7.7.t.t.d.f.f.A.J.I.J.L.^./. XOXOX$X#X0X*X-X-X-X-X*X-X-X-X-X*X-X*X+X+X$XOX X X%XCX3XW.+XS ",
"X k y.`.}.4.7 :.t.7.7.7.7.7.7.t.d.f.d.A.J.I.I.S.R.E./.OXOX X+X#X*X-X-X-X-X*X-X0X-X:X-X-X-X*X#X@X$X X/.:XCX3X`..XS ",
"X k y.7XY.} 7 :.p.7.7.7.7.7.7.7.d.d.f.d.A.A.A.L.E.L.~.~. X X}.+X-X$X0X0X=X*X*X*X#X;X*X-X*X;X0X-X$X$XOX&XCX3XT. XA ",
"X d c.4X9.n 7 :.p.9.7.7.9.7.9.t.t.d.p.d.d.A.A.I.P.P.P.~./. XOXOX#X#X0X-X0X9X*X0X*X9X*X;X-X;X-X-X0X$XOX=XBXyXuX`.B ",
"X k 8.i.n s r :.p.7.7.7.7.9.5.7.t.p.d.d.d.A.A.A.J.J.P.E./. X X XOX#X0X-X*X0X=X;X-X;X*X=X-X=X-X-X*X*X X=XBX3XH.4.u ",
"X c 8.5.5.x 7 :.t.7.t.7.7.9.5.7.t.t.t.p.d.A.A.A.K.A.L.P.L./. X X/.OX$X:X#X-X;X-X0X%X9X9X=X*X*X*X9X-X@X%XAX&X{ :.u ",
"o c t.S.K.:.7 :.p.t.7.7.7.5.9.5.t.t.t.t.p.f.f.A.A.J.I.P.P./. X XOXOX$X0X-X:X=X;X9X9X0X=X*X*X*X;X-X-X*X4XKX;XB.r.g ",
"o c t.A.I.9.7 :.p.t.t.7.7.7.5.7.7.7.t.t.d.f.A.A.J.J.J.J.P.~. X XOX/.>XmXmXMXMXMXMXMXmXmX6X-X-X=X;X-X-X3XZX3XW.W.Z ",
"o c 5.f.N.3.t :.t.t.t.7.7.5.5.5.7.7.t.t.t.f.f.A.A.J.J.J.J.E.OX~.OX!.2XnXnXbXxXxXzXzX2.2.<X9X;X&X$X-X9XqXKX3XW.+XZ ",
"o k 5.t.A.:.t n t.t.7.7.7.7.5.5.5.7.7.t.p.f.f.A.f.J.J.J.J.K.~./. X/.2XbXbXxX( ] ( L R R Q |.rX8Xo...3X3XCX3XW..XZ ",
"o k 5.t.a.:.7 :.p.p.t.y.7.7.5.5.5.7.7.t.p.d.d.f.f.f.J.J.J.J.E.^. X~.2XvXxX2.( ] ( L ^ R 0 a.|.;.#.[ Z.rXCXqX.X.XZ ",
"o k u.l.5.v 7 :.d.p.t.t.8.7.5.5.5.7.7.7.t.d.d.d.f.f.A.J.J.J.E.P. X/.5XcX] ) ( ^ ~ ^ ~ I 0 9.[.;.@., ,.(.NXaXlX`.g ",
"o l y.l.:.x 7 :.d.t.t.t.7.5.5.5.5.5.5.7.t.t.p.p.f.f.f.J.J.J.P.^.^./.7XxX] ( ( ~ ~ ^ / I q { Z.;.@.2 x y.gXyXfXF.y ",
"o k 5.:.:.j t :.d.d.p.t.t.7.5.5.5.5.5.7.7.t.r.p.d.d.d.N.N.J.J.K.E.P.>XxX/ &.&.&.` P I L 0 3.C.;.@.3 M.7.aX2X{ { e ",
"o c 5.5.:.j 7 :.d.f.d.t.p.7.7.7.5.5.5.5.7.t.t.t.t.s.s.f.N.J.K.J.P.P.'.xX^ %.1 , < - H H 0 9.C.-.' 4 1X3.2XaX|.j.y ",
"o l 7.8.:.x 7 :.f.d.s.t.t.t.7.5.5.5.5.7.7.7.t.t.p.p.d.N.N.N.J.J.J.L.'.<XI $..   > = * - 0 5.n.-.' 4 m.:.].gXpXyXG ",
"o c 7.p.5.x r :.f.d.d.p.t.t.7.7.7.5.5.5.7.7.7.t.t.p.s.d.f.A.J.J.J.I.[.zXI %..   > = % $ 5 5.C.=.O.4 m.3.Y.BXNXsXG ",
"o k 7.p.7.j 7 :.f.d.d.d.p.t.7.5.5.5.5.7.7.5.7.7.t.r.a.d.d.N.N.J.J.J.).,XI $.1 > > + # + 6 :.C.=.' 3 m.3.Y.CXGXNX! ",
"X k y.d.y.x 7 :.f.d.d.d.p.t.7.7.5.5.5.5.5.5.5.5.t.t.p.s.d.d.f.J.A.K.C.,X~ P > ; = + # = 6 5.C.*.' 3 n.5.T.SXIXLX<.",
"X s y._.y.b r >.A.d.f.d.p.t.7.5.7.5.5.5.5.5.9.7.7.7.t.p.d.d.f.f.A.J.G.1.^ H + + @ @ # $ 6 :.C.*.' 3 n.9.T.HXUXLX<.",
"X l u.H.:.x r >.d.f.d.d.s.t.t.7.5.7.5.5.5.5.5.7.7.t.t.p.p.d.f.f.A.J.G.,X^ L * * & # & $ 8 >.G.X.1 : v.9.(.JXFX2XQ ",
"X l 5.n b s 7 :.d.d.f.d.d.t.7.7.7.7.5.5.5.7.5.5.5.t.t.t.p.s.d.f.A.J.(._ ^ E L L P + * & 6 3.x. .w h 5.9.W.ZX6XV.C ",
"X d 7.7.:.x r :.f.d.d.f.d.t.t.t.7.7.7.5.5.5.5.5.5.t.7.t.p.t.d.f.A.A.c.1.( R L I L + & $ 5 } D. X8.n :.5.W.ZXFX3XF ",
"X d 7.d.s.b 7 :.A.f.f.f.d.p.t.t.7.7.7.5.5.5.5.5.5.5.5.t.t.p.d.d.f.f.z./ P P H H H # @ # 6 } g.OX}.j.3.5.Y.AXJXDX<.",
"X l t.N.s.b 7 :.A.f.d.d.f.t.t.t.7.7.7.5.7.5.5.5.5.5.t.t.t.t.d.d.d.f.h.B 8 8 8 8 8 8 8 8 p 3.B.OXOX}.r.5.Y.VXDXUX<X",
"o k t.N.g.>.r n f.A.d.f.d.d.t.t.7.7.7.5.5.5.5.5.5.5.7.y.y.t.p.p.s.d.A.t.n >.n b b n n m :.5.l.OX/.OXT.s.U.sXDXHX,X",
"X k t.U.f.3.r 3.J.f.f.f.f.p.p.t.7.t.7.7.7.5.5.5.5.5.5.7.7.t.d.p.s.d.f.f.d.r.y.y.y.y.t.y.a.y.D. XOX$X/.E._.yXsXDX,X",
"o k t.Q.B.3.7 :.J.f.f.d.d.d.t.t.t.t.7.7.7.5.5.5.5.7.5.7.7.t.t.d.p.d.d.f.J.J.J.S.R.L.^.^.~. X X+XOX/.OX/.tXyXpX6XQ ",
"o s j.%Xs.:.7 n f.A.f.f.f.d.p.t.t.t.7.7.5.7.5.5.5.5.5.5.7.5.t.t.p.d.d.d.f.A.J.J.L.^.L.^.~. X X X/./.OX}.uXhXkXV.9 ",
"X d y.u.n x t { f.N.f.f.f.f.p.p.t.t.8.7.5.5.5.5.5.5.5.5.5.7.7.t.t.p.d.d.d.f.J.K.K.E.E.R.E./. X~.OX/./.+XgXyXn.4.9 ",
"X k 7.n n j 7 3.J.f.f.d.f.d.d.p.p.t.t.7.7.5.5.5.5.5.5.5.5.5.7.t.t.p.p.d.f.f.f.A.J.P.P.E.E.^.!./.OX}.}.%XZXyXr.3.9 ",
"X k 7.p.7.b 7 { f.J.f.f.f.f.d.p.r.p.7.t.8.5.5.5.5.5.5.5.5.5.7.7.t.d.p.s.d.f.A.A.J.K.E.P.P.E.!.}. X X!.XXAXuX9X+XC ",
"X k r.U.K.:.7 :.N.J.N.f.d.f.d.p.p.p.7.7.7.5.t.5.t.5.5.7.5.5.5.7.5.t.s.s.d.f.f.A.A.J.J.P.E.E.E.E./. X!.%XKXtX:XtXG ",
"X k t.R.K.3.7 :.N.N.f.f.f.f.d.p.p.p.t.7.t.7.7.7.5.5.5.5.5.5.5.7.t.7.t.d.d.d.f.f.f.f.K.L.P.E.P.P.^.}.W.%XAXqXOX0XG ",
"X c 7.R.I.:.r 3.N.J.J.f.f.d.d.p.p.t.t.t.7.7.7.7.5.5.5.5.5.5.5.7.5.t.t.t.t.d.d.f.f.S.A.K.E.P.P.L.P.W.W.%XAX3X}.$XF ",
"X c r.Q.R.>.7 3.N.J.f.f.d.f.d.d.p.p.t.7.7.7.5.5.5.5.5.5.5.5.5.5.7.7.t.t.p.p.f.d.f.f.A.K.P.P.E.E.^.W.W.*XAXtX/.+XF ",
"X s z.qXh.>.r { N.J.A.f.f.f.d.d.p.s.t.t.7.7.t.5.7.5.5.5.5.5.7.7.5.7.7.7.7.t.p.s.d.d.d.J.N.I.L.R.R.Q.E.%XhXyXiX(.e ",
"X s j.XX3.b r n N.N.N.s.s.d.d.s.p.t.t.7.5.5.5.5.9.9.7.t.7.t.a.a.a.x.x.x.c.G.G.G.(.Y._.W.`.'.$X+X+X|.&X&XKX5Xv.>.9 ",
"X z 5.n b l p r.E.B.U.R.U.D.U.Q.Y.Y.Y.(.(.(.G.G.F.x.U.N.N.N.Q..X%X;X3XaXsXsXsXsXdXdXdXdXsXpXdXdXpXdXdXdXZXXX9.:.9 ",
"O h 9.l.r.:.x F.tXwXwXyXfXjXjXhXVXVXVXVXVXhXVXVXBXgXyX%X|.$X=X4XyXjXjXVXSXSXSXZXSXSXSXSXZXSXSXSXSXSXSXDXJX3XB.a.e ",
"O h 7.W.W.h.7.].aXaXaXaXVXAXCXKXAXVXBXBXBXBXNXhXBXVX>Xv.j.u.u.i.z.C.G.'.'.).{.).].].'.%X&X%X3X3X3X3XqXeX2X|.}.`.C ",
"o c t.W.}.W.W.3X[.(.'.|.|.oX3X&XY.Q.U.B.B.x.l.i.l.j.9.b :.3.x n { { 9.U.x.3.p.p.s.p.p.Q.eX8.U.W.W.Y.fXVXv.E.}.}.C ",
"O h 8.W. XW.}.&Xu.7.W.}. X~.%Xz.3.B.J.J.f.f.l a t.t.5.:.{ s s v { { 9.a.4.b s.s.s.f.s.B.{.n a.+X}..X=X7X4.T.}.}.F ",
"O c t.}.OX X}.j.n 3.Y.|.}.OXU.:.n B.L.K.f.a.p t 6.r.4.m N d f z N m } } N d 0.8.8.w.w.q.,.k e.).).].i.b m b.).).V ",
"0 g ,.m.m.m.m.v.N D n.m.n.C.b.N N M.n.v.w.0.z g N 0.V U J Y J K Y U J U J J U U U U U Y Y J Y W Y T Y Y U W W T L "
};
