/* XPM */
static char *purplestone_xpm[] = {
/* width height num_colors chars_per_pixel */
"    64    64      256            2",
/* colors */
"`` c #6c0070",
"`. c #400040",
"`# c #580058",
"`a c #840084",
"`b c #5c4020",
"`c c #9c009c",
"`d c #6c4824",
"`e c #500050",
"`f c #480048",
"`g c #543c1c",
"`h c #483818",
"`i c #403018",
"`j c #744c28",
"`k c #80502c",
"`l c #382c14",
"`m c #b400b4",
"`n c #646464",
"`o c #484848",
"`p c #383838",
"`q c #545454",
"`r c #000000",
"`s c #000000",
"`t c #000000",
"`u c #000000",
"`v c #000000",
"`w c #000000",
"`x c #000000",
"`y c #000000",
"`z c #000000",
"`A c #000000",
"`B c #000000",
"`C c #000000",
"`D c #000000",
"`E c #000000",
"`F c #000000",
"`G c #000000",
"`H c #000000",
"`I c #000000",
"`J c #000000",
"`K c #000000",
"`L c #000000",
"`M c #000000",
"`N c #000000",
"`O c #000000",
"`P c #000000",
"`Q c #000000",
"`R c #000000",
"`S c #000000",
"`T c #000000",
"`U c #000000",
"`V c #000000",
"`W c #000000",
"`X c #000000",
"`Y c #000000",
"`Z c #000000",
"`0 c #000000",
"`1 c #000000",
"`2 c #000000",
"`3 c #000000",
"`4 c #000000",
"`5 c #000000",
"`6 c #000000",
"`7 c #000000",
"`8 c #000000",
".` c #000000",
".. c #000000",
".# c #000000",
".a c #000000",
".b c #000000",
".c c #000000",
".d c #000000",
".e c #000000",
".f c #000000",
".g c #000000",
".h c #000000",
".i c #000000",
".j c #000000",
".k c #000000",
".l c #000000",
".m c #000000",
".n c #000000",
".o c #000000",
".p c #000000",
".q c #000000",
".r c #000000",
".s c #000000",
".t c #000000",
".u c #000000",
".v c #000000",
".w c #000000",
".x c #000000",
".y c #000000",
".z c #000000",
".A c #000000",
".B c #000000",
".C c #000000",
".D c #000000",
".E c #000000",
".F c #000000",
".G c #000000",
".H c #000000",
".I c #000000",
".J c #000000",
".K c #000000",
".L c #000000",
".M c #000000",
".N c #000000",
".O c #000000",
".P c #000000",
".Q c #000000",
".R c #000000",
".S c #000000",
".T c #000000",
".U c #000000",
".V c #000000",
".W c #000000",
".X c #000000",
".Y c #000000",
".Z c #000000",
".0 c #000000",
".1 c #000000",
".2 c #000000",
".3 c #000000",
".4 c #000000",
".5 c #000000",
".6 c #000000",
".7 c #000000",
".8 c #000000",
"#` c #000000",
"#. c #000000",
"## c #000000",
"#a c #000000",
"#b c #000000",
"#c c #000000",
"#d c #000000",
"#e c #000000",
"#f c #000000",
"#g c #000000",
"#h c #000000",
"#i c #000000",
"#j c #000000",
"#k c #000000",
"#l c #000000",
"#m c #000000",
"#n c #000000",
"#o c #000000",
"#p c #000000",
"#q c #000000",
"#r c #000000",
"#s c #000000",
"#t c #000000",
"#u c #000000",
"#v c #000000",
"#w c #000000",
"#x c #000000",
"#y c #000000",
"#z c #000000",
"#A c #000000",
"#B c #000000",
"#C c #000000",
"#D c #000000",
"#E c #000000",
"#F c #000000",
"#G c #000000",
"#H c #000000",
"#I c #000000",
"#J c #000000",
"#K c #000000",
"#L c #000000",
"#M c #000000",
"#N c #000000",
"#O c #000000",
"#P c #000000",
"#Q c #000000",
"#R c #000000",
"#S c #000000",
"#T c #000000",
"#U c #000000",
"#V c #000000",
"#W c #000000",
"#X c #000000",
"#Y c #000000",
"#Z c #000000",
"#0 c #000000",
"#1 c #000000",
"#2 c #000000",
"#3 c #000000",
"#4 c #000000",
"#5 c #000000",
"#6 c #000000",
"#7 c #000000",
"#8 c #000000",
"a` c #000000",
"a. c #000000",
"a# c #000000",
"aa c #000000",
"ab c #000000",
"ac c #000000",
"ad c #000000",
"ae c #000000",
"af c #000000",
"ag c #000000",
"ah c #000000",
"ai c #000000",
"aj c #000000",
"ak c #000000",
"al c #000000",
"am c #000000",
"an c #000000",
"ao c #000000",
"ap c #000000",
"aq c #000000",
"ar c #000000",
"as c #000000",
"at c #000000",
"au c #000000",
"av c #000000",
"aw c #000000",
"ax c #000000",
"ay c #000000",
"az c #000000",
"aA c #000000",
"aB c #000000",
"aC c #000000",
"aD c #000000",
"aE c #000000",
"aF c #000000",
"aG c #000000",
"aH c #000000",
"aI c #000000",
"aJ c #000000",
"aK c #000000",
"aL c #000000",
"aM c #000000",
"aN c #000000",
"aO c #000000",
"aP c #000000",
"aQ c #000000",
"aR c #000000",
"aS c #000000",
"aT c #000000",
"aU c #000000",
"aV c #000000",
"aW c #000000",
"aX c #000000",
"aY c #000000",
"aZ c #000000",
"a0 c #000000",
"a1 c #000000",
"a2 c #000000",
"a3 c #000000",
"a4 c #000000",
"a5 c #000000",
"a6 c #000000",
"a7 c #000000",
"a8 c #000000",
/* pixels */
"```````.`.`.`.`.`#```a`#```.`.`.`.`.`.`.`````````````#`.`.`.`.`.`.`.`.`.`#```a`a```#`#`.`.`.`.`.`.`.`.`.`.`.`.`.`#`#`#`#`#`#`#`#",
"`b`a`a```.`.`.`#```a`````#`#`.`.`.`.`.```a`c`d`d`d`b```#`.`.`.`.`.`.`e`#```a`a`a`a```a```.`.`.`.`.`.`.`.`.`#`#`#```a`a`d`d`d`d`d",
"`d`b`a`a`a```.`#`````#```````#`.`.`e`#`a`c`d`d`b`b`b`b`#`#`e`.`.`e`e`#`e```a`a`a```a`````#`.`.`.`.`.`.`.`#`#`#```a`a`d`d`d`d`d`d",
"`b`b`b`a```#`#`#`#`#`````#`#`.`f`e`e`#`a`c`d`b`a`````b```#`e`e`e`#`#`e`#```a```a`````#`#`#`e`e`f`e`e`f`e`e`#`#```a`d`d`d`d`g`g`#",
"`a`b`h```a```#`#`#`#`#`#`e`f`f`e`e`#`#```a`a```#```a`d```e`#`b`b`b`a```#`#```a```#`#`b`b`d`b`b`b`g`g`h`h`e`e`e```a`d`d`d`i`#`g``",
"`a`b`h`a`a`````#`````a`a`a`a`a`````#`#`#```a```a`a```g`e`#`b`d`d`d`b`a```#`#```h`h`b`d`d`d`d`d`b`b`b`h`b`h`e`e```a```d`b`i```g`a",
"```a`b```a```a```a`a`a`a`d`````a`a`````#`#```#`a`````i`#`b`d`d`g`g`b`a```#`i`h`d`d`j`d`d`d`b`g`g`i`g`i`i`b`h`e`#```a`d`b`i`a`g``",
"`a`a`b`a```````a`b`j`a`d`b```#```````a```#`#`#`#```#`h`#`d`b`g`#`#`g```#`i`g`d`j`j`j`j`j`d`h`g`h`.`g`#`#`b`i`h`e`#`a`d`b`i`a`g`#",
"```a`b```#```a`b`j`j`d`b`g```#`#`#`#`````#```#`#`````b```b`b`#`a```h`a```i`d`j`j`k`k`j`j`d`h`.`h`#`g`````g`#`h`e`e```b`g`i```g`e",
"`#```b`#```a`a`j`j`d`b`b`g```#`#```#`#`#`#`#`````````g`#`b`b```a`a`i```i`d`g`h`k`k`j`j`d`b`i`#`i`#`g`a`a`g```h`#`e`#`b`g`i`a`g`e",
"`#`#`i`````a`c`j`d`b`b`g`h```#`````b`b`b`g`h`#`#`#```h`e`h`#`a`````i`e`i`g`d```k`j`d`d`b`g`i`#`#`#`a`a`g`g```h`i`#`e`#`g`i```#`e",
"`#`#`i```a`a`c`j`b`b`h`h`h```#```b`d`d`d`d`b```#`#`#`#`e`h```a`#```i`f`i`g`h```k`d`d`b`g`g`g`i`a`#`a`g`g`g`g`h`i```#`e`g`i`e`#`e",
"`#`#`i```a`c`c```b`h`i```i`#```#`d`d`b```b`d`a```#`e`f`f`i`e`e`e`e`f`f`#`g`h`a`d`d`b`g`#```g`g`i`a`a`g`h`h`g`h`i`````#`g`i`e`e`f",
"`#`#`i```c`a`d`d`d`b`i`e`i`e`e`b`d`b`````a`b`a```e`.`.`f`e`e`#`e`e`e`#`e`g`h`a`d`b`g`#```a```g`i`b`d`h`i`i`a`h`i```a`#`e`e`e`f`f",
"`#`#`#```a`d`d`b`````````l`f`e`b`d`b`#`a```b`a```e`f`f`e`#`#```a`a```e`e`h`h`a`d`#`g```a`a`a`d`b`d`g`i```````h`i```a```#`e`e`f`f",
"`#`#`#```a`d`b```a`c`c`a`l`.`e`b`d`b`#`a`#`g```#`f`#`h`h`h`#`````````e`f`h`#`a`d`a`g`#`h`g`d`d`d`g`i```a```#```h`i`````e`f`f`f`f",
"`#`#`#```a`d```a`c`a`````l`.`e`d`a`g`#```#`h`e`e`e`b`d`d`b`b`h`#```#`f`f`h`#`a`d`a`g`h`d`d`d`d`d`d`g`i`````#`a`h`h`i```e`f`f`f`f",
"`#`#`#`````d```c`a`#`#`.`l`.`e`d`a`h`#```#`i`e`#`d`k`k`k`k`d`b`#`#```f`f`i```a`#`a`g`d`d`d`d`g`g`g`g`i```a```````h`i`i`e`f`f`e`#",
"`#`#`#`````d```c`#```a`#`l`f`e`a`a```a```#`e`e`a`k`d`b`b`b`b`d`g`#`#`e`f`i`````#`#`g`d`d`g`g`l`g`l`g`i`````#`#`a```i`e`.`e`e`e`#",
"`#`#`#`#`````a```#`a```#`l`e`#```a`a```#`e`e`#`a`b```m`c`a`c`b`g`h`i`#`e`i```a`#`g`g`d`g`h`l`#`g`#`g`l```#```#`a```i`e`f`e`#`#``",
"```````#`#```a`#`#`````a```#```a`````#`e`e`#`a`d`m`m`c`a`a`g`a`g`g`h`#`#`i`````#`#`g`d`g`l`#```#```g`l```#```#`````h`e`e````````",
"`d`a`a```#`````#```#`#```a```#`#`#`e`e`e```a`d`j`a`c`a`d`g`g`i`g`i`i`i`#`h```#`#`#`g`a`g`l`````#`#`l`#`#```#`e```#`h`#```a`j`j`d",
"`d`d`b`a```#`#`#`#```a`#`#`.`.`e`#`#`````a`d`j`d`d`d`d`b`i`#```i`#`i`i`h`g`h`#`#```g`a`h`l`#`#`#`````#```#`e`e`e`h`g`a`a`j`j`d`d",
"`b`b`d`h```#`#```a`a`a```#`.`.`b`b`i`#```a`d`j```a`d`g`g`#```a`#`i`i`g`b`d`b`#`#`````a`i```#`#`#`#`a```#`#`e`f`.`h`b`d`d`j`j`d`d",
"`b`g`g`h```a`````a`a`a```e`.`g`b`g`h`#```a`d`j```a`d`g`i`#`a`#`i`i`h`h`h`g`g`g```````a`i`a`````a`a```a```f`.`e`e`b`d`j`j`a`a`a`b",
"`#`#`h`i`i`````a`a`a```#`.`e`d```#`h`#```a`d`j`d`d`g`i`i```a`g`h`h`i`i`g`g`h`g`g`i`a```````a`a`````#```.`.`f`#```d`j`j`c`a``````",
"`#`#`#`h`h```#```````#`h`d`d`d`#```i`i```a`d`d```#`#`````a`a`g`h`i`h`#`#```g`g`h`i`i```a`````a```#`e`f`.`.`f```a`j`j`c`c`a`#```#",
"`a`a`a`g`g`#`a```#`#`h`g`g`b`#`#`#`i`e```a`a`d```#```d`d`d`g`i`i`h`g`g`a`c`g```g`h`i`i```#`#```#`e`e`f`f`f`#`a`j`d`j`j`j`j`d`#`#",
"`#`````b`b`#```#`e`e`h`````b`````a```e`#```a`d`a`c`c`c`c`c`g`i`````h`g`a`a`g```g`g`h`i`#`e`e`#`e`b`b`b`#`#```a`d`j`b`b`b`j`j`d``",
"`#```a`d`b`a`#`e`e`e`e`#```h`a`a```#`f`e`#`a`a`c`c`c`a`a`a`g`i`#`c`a`i`#```g```g`g`h`i`#`e`e`e`b`b`b`#`#```a`c`d`b`a`m`m`b`d`d`a",
"```a```b`b```#```#`#`#`````i`h`h`h`i`f`f`#`a`a`c`c`a`a```b`g`i```a`a`i`#`#`g`#`g`g`h`i```#`h`e`b`b`a`a`a`a`a`c`d`a`m`a`a`c`c`d`b",
"```a```g`g`a```a```#```a`c`c`a`a```g`i`i```a`c`a`b`d`d`g`i`g```c`````i`#```````g`g`h`i```#`e`e`b`a`a`a`````a`c`d`a`m`````c`c`b`b",
"`#`a```h`h`a`#```#`#`a`m`m`c`b`b`b`a`h`e`a`a`a`b`d`b`g`h`g```c`a```a`#```a`a`a`g`g`h`i```#`f`e`h```a`a```#`a`a`d`a`c```#`a`a`g`g",
"`#```a`g`g```````#```c`m`c`b`b`b`b`b```#`a`a`a`d`b`i`f`h`g`h`c`a`#```````a`a`a`g`g`h`i```#`f`e`h```````#```a`a`d`a`c```#```h`h`h",
"`#```a`d`b```a`a`#`a`c`c`b`b`h`h```h`a`#`a`a```d`h`e`#`#`h`h`a```f`#```a`a```#`g`i`h`i```#`f`e`h`#`#```#`#```a`b```a```e```h`h`h",
"`a`#`a`b`h```a```#`a`a`c```b`h`h`a`h```#`a`a`#`h`f`#```#`h`i```#`f`#```a`a```#`g`i`#```#`e`e`e`h`e`#`#`e`#`#```b```a```#`e`e`g`g",
"`#`#`a`h`h`````#`#```a`a```h`h`h```h`#`#```a```h`f`````#`i`i`e`f`#`#`#```a`#`#`g`i`#```#`e`#`#`h`e`e`e`e`e`e`#`g`#```````#`#`b`b",
"`#`#```h```#`#`e`e```a`a`a`h`h`h`#`h`f`e`#`````b`.`#`#`f`i`i`f`f```#`#`a`#`#`````i```a`````````h`e`e`e`#`#`e`e`g`.`#`````````d`d",
"`#`#`a```#`e`e`e`e`#`````a```h`#`e`h`f`f`e`#`#`h`.```#`f`i`i`f`#`#`f`#`#`````#```i`#`````a`a`a`h`e`#`````````#`g`e`.`e`#`#`e`d`d",
"`#`#```#`#`#`e`e`e`e`#`````#`h`#`e`e`e`e`f`e`e`i`f`#`#`a```i`.`f`f`#`#```a`a`#```#`i`#```a`a```h`#```a`a`a`a```#`#`f`.`.`.`.`b`b",
"`#`#`#`````````#```#`e`#```a`a`a`a```e`#`e`e`#`i`f`f`f```#`l`.`f`f`#```a`a```#`#`#`i`#`a```#`#`h`h`b`b`a`a`a`a`````#`f`f`.`.`g`h",
"`#`#```a`d`d`a```a```#```a`a`a`a`a`a`a`#```#`#`l`f`f`f`f`f`l`.`f`#`#```a```#`#```#`e`#`e`#`a`h`b`b`d`d`b`b`a`````a```#`f`f`.`h`h",
"`e`#```d`b`b`g`````#`````a`a`d`d`g`g`````a```e`l`e`f`f`f`f`i`.`#`````#`#`e`e`e`#`e`f`e`#`#```a`b`d`b`g`#`g```a```a`a```#`f`f`i`i",
"`e`#`a`b`````g`#`#```a`a`a`d`d`d`g`g`#`#```#`f`i`e`e`e`e`e`h`e`#`#`#`#```#`#`e`e`f`f`e`#```a`c`d`d`g`h`.`h```a`a`a```a```#`e`i`l",
"`e`#`a`g```a`g`a```a`a`d`d`d`b`b`g`h`#`#`#`e`.`h`#`g`g`g`g`b`a`a`#`#`#```````#`#`e`e`e`#```a`c`g`a`h`#`.`#`#```a```#```#```#`l`.",
"`e`#```g```#`g`````a`a`b`a`d`#`#`g`i`#```#`e`.`h`g`d`d`b`b`d`c`c`a`#`#```a`a`````#`#`#```a`d`c`g`a`h`.`.`#```a`a```#`#```a```l`.",
"`e`#`#`h```a`a```a`a```g`#`a`e`#`#`i```a```e`f`g`d`k`j`d`b`d`a`m`c`d`h```a`a```a```#```a`d`d`a`h```#`.`#`#`h`b`c`a```````a```l`.",
"`f`e`#`h```a`a```a`a```#`a`#`e```a`c`i`a```e`e`b`k`j`j`d`d`d```c`a`b`d`h`a```a`````#```d`d`d`a`h```#`#`h`h`b`d`j`a```a```````#`#",
"`e`f`e`i```````#```a```#`#`e`````c```i```#`#`#`d`j`d`d`b`d`d`d`a`c`a`b`b```a```a`````d`d`d`d`d`d`#`h`h`b`b`d`j`b`````a`````a```i",
"`e`f`e`i`e`#`#`#`#```#`#`#```#`````i```a```#`d`d`b`g`d`g`b`d`d`d`a`c`a`b`h`````````a`d`d`b`b`b`b`d`a`a`j`j`j`b`h`#`#```````a```i",
"`f`.`f`l`f`e`e`e`#`#`````e`#`e`f`.`i`#```#`#`a`d`g`b`b`h`g`b`b`b```a`a`b`h`e`#`#```d`d`b`b`f`e`e`#`````b`h`#`b`h`#```a`a```a```i",
"`.`.`.`l`f`.`f`f`e`e`#`#`#`````f`f`i`e`#`h`d`d`d`d`b`h`b`g`g`h`h`b`d`a`b`h`f`e`#`#`d`b```g`e`#`#```a`a`b`h```b`h```a`a```#```#`#",
"`f`.`.`.`.`f`e`e`#`#`#`#`#`#`#`e`e`i`l`h`d`g`g`h`b`h`b`b`h`h`h`h`h`b`b`b`b`h`f`e`#`g`a```h`#`h`b`b`h`i`b`a`a```h`a`a`g`b`h`#`#`i",
"`e`.`.`l`f`e`#`#`````a`a`a`a`a```#`i`h`d`g`g`i`l`h`h`b`h`h`f`#`#`````g`g`b`b`h`i`#`h```a`h```b`g`g`h`i`b`a`````h```g`b`b`b`h`#`i",
"`f`.`f`f`e`#```a`a`a`d`d`d`d`d`a```#`h`b`g`i`f`l`i`f`h`h`i`#`a`````#`h`h`h`h`g`h`f`i`#```h`a```h`f`h`i`b```#`#`i`a`````g`g`h`e`e",
"`f`f`f`f`e```a`c`c`b`d`g`g`g`g`d`a`#`h`b`i`f`f`l`i`f`h`h`i```a`a`a`a`i`i`l`l`g`h`e`i`f`#`i`a```h`f`i`i`#`#```#`i```#```h`h`h`e`e",
"`f`f`f`f`#```a`c`c`d`#```````g`g```#`h`b`i`f`f`f`i`f`f`#`i`#```a`a`a`l`i`l`f`h`i`#`#`e`f`i`````i`f`h`h`#`#`a`#`i`#`#`#`h`h`h`e`e",
"`e`f`f`e`#```a`c`#`g```a```a```g```#`l`a`a`#`#`a`i`#`a`#`i`#```a`````l`l`f`e`i`l`e`#`e`f`i`e`e`i`e`g`g`i`#`#`#`i`#```#`#`b`g`g`#",
"`e`f`f`e`#```a`g`g`i`g`g`a```a`h`````l`#`a`a`#`#`i`#`#`#`i```#```#`f`f`l`e```i`l`f```f`e`i`#`e`e`#`b```b`i`#`#`i```#`#`b`k`d`d`g",
"`e`f`f`e`g`d`d`d```a```````````h```a`l`#`#`#`#`#`i`i`i`i`i`````#`#`#`f`l```#`i`l`f`e`e`#`i`````#`a`g`a```i`i`#`i`#`#`b`k`d`b`b`a",
"`i`e`e```d`d`b`b`d`````a`a`i`i`i`i`i`i`#`#`a`#`i`h`h`h`h`h`h`i`i`i`i`i`l`i`#`i`l`f```#```a`a`a```#`i`i`i`i`i`i`i`i`i`d`k`b```i`i",
"`i`i`i`a`d`e```a`g`a`#```i`h`h`h`h`h`h`h`h`i`i`i`b`a`b`b`b`b`g`g`g`h`h`h`i`i`i`l```a`````a`a`a`h`h`h`g`g`g`g`b`b`b`d`k`b`h`a```i",
"`i`i`i`i`b```a`#`h`i`i`i`h`b`b`d`d`b`b`b`h`h`h`h`h`b`d`j`k`j`d`d`b`b`b`b`b`g`g`h`h`h`h`i`i`i`i`h`h`h`g`b`d`d`d`d`d`d`b`h`i`i`i`i",
"`n`o`p`i`i`i`i`i`i`i`i`i`i`i`i`i`i`i`p`o`n`n`q`p`i`i`i`i`i`i`i`i`i`i`i`i`i`i`i`i`i`i`i`p`o`q`q`o`p`i`i`i`i`i`i`i`i`i`i`i`i`p`o`n"
};
