/* XPM */
static char *z8qqi_m32n5[] = {
/* columns rows colors chars-per-pixel */
"64 64 256 2 ",
"   c black",
".  c #0000A8",
"X  c #00A800",
"o  c #00A8A8",
"O  c #A80000",
"+  c #A800A8",
"@  c #A85400",
"#  c gray66",
"$  c gray33",
"%  c #5454FC",
"&  c #54FC54",
"*  c #54FCFC",
"=  c #FC5454",
"-  c #FC54FC",
";  c #FCFC54",
":  c gray99",
">  c #ECECEC",
",  c gainsboro",
"<  c #D0D0D0",
"1  c #C0C0C0",
"2  c #B4B4B4",
"3  c gray66",
"4  c #989898",
"5  c gray55",
"6  c #7C7C7C",
"7  c gray44",
"8  c #646464",
"9  c gray33",
"0  c #484848",
"q  c gray22",
"w  c #2C2C2C",
"e  c #202020",
"r  c #FC0000",
"t  c #EC0000",
"y  c #E00000",
"u  c #D40000",
"i  c #C80000",
"p  c #BC0000",
"a  c #B00000",
"s  c #A40000",
"d  c #980000",
"f  c #880000",
"g  c #7C0000",
"h  c #700000",
"j  c #640000",
"k  c #580000",
"l  c #4C0000",
"z  c #400000",
"x  c #FCD8D8",
"c  c #FCB8B8",
"v  c #FC9C9C",
"b  c #FC7C7C",
"n  c #FC5C5C",
"m  c #FC4040",
"M  c #FC2020",
"N  c #FC0000",
"B  c #FCA85C",
"V  c #FC9840",
"C  c #FC8820",
"Z  c #FC7800",
"A  c #E46C00",
"S  c #CC6000",
"D  c #B45400",
"F  c #9C4C00",
"G  c #FCFCD8",
"H  c #FCFCB8",
"J  c #FCFC9C",
"K  c #FCFC7C",
"L  c #FCF85C",
"P  c #FCF440",
"I  c #FCF420",
"U  c #FCF400",
"Y  c #E4D800",
"T  c #CCC400",
"R  c #B4AC00",
"E  c #9C9C00",
"W  c #848400",
"Q  c #706C00",
"!  c #585400",
"~  c #404000",
"^  c #D0FC5C",
"/  c #C4FC40",
"(  c #B4FC20",
")  c #A0FC00",
"_  c #90E400",
"`  c #80CC00",
"'  c #74B400",
"]  c #609C00",
"[  c #D8FCD8",
"{  c #BCFCB8",
"}  c #9CFC9C",
"|  c #80FC7C",
" . c #60FC5C",
".. c #40FC40",
"X. c #20FC20",
"o. c #00FC00",
"O. c #00FC00",
"+. c #00EC00",
"@. c #00E000",
"#. c #00D400",
"$. c #04C800",
"%. c #04BC00",
"&. c #04B000",
"*. c #04A400",
"=. c #049800",
"-. c #048800",
";. c #047C00",
":. c #047000",
">. c #046400",
",. c #045800",
"<. c #044C00",
"1. c #044000",
"2. c #D8FCFC",
"3. c #B8FCFC",
"4. c #9CFCFC",
"5. c #7CFCF8",
"6. c #5CFCFC",
"7. c #40FCFC",
"8. c #20FCFC",
"9. c #00FCFC",
"0. c #00E4E4",
"q. c #00CCCC",
"w. c #00B4B4",
"e. c #009C9C",
"r. c #008484",
"t. c #007070",
"y. c #005858",
"u. c #004040",
"i. c #5CBCFC",
"p. c #40B0FC",
"a. c #20A8FC",
"s. c #009CFC",
"d. c #008CE4",
"f. c #007CCC",
"g. c #006CB4",
"h. c #005C9C",
"j. c #D8D8FC",
"k. c #B8BCFC",
"l. c #9C9CFC",
"z. c #7C80FC",
"x. c #5C60FC",
"c. c #4040FC",
"v. c #2024FC",
"b. c #0004FC",
"n. c #0000FC",
"m. c #0000EC",
"M. c #0000E0",
"N. c #0000D4",
"B. c #0000C8",
"V. c #0000BC",
"C. c #0000B0",
"Z. c #0000A4",
"A. c #000098",
"S. c #000088",
"D. c #00007C",
"F. c #000070",
"G. c #000064",
"H. c #000058",
"J. c #00004C",
"K. c #000040",
"L. c #282828",
"P. c #FCE034",
"I. c #FCD424",
"U. c #FCCC18",
"Y. c #FCC008",
"T. c #FCB400",
"R. c #B420FC",
"E. c #A800FC",
"W. c #9800E4",
"Q. c #8000CC",
"!. c #7400B4",
"~. c #60009C",
"^. c #500084",
"/. c #440070",
"(. c #340058",
"). c #280040",
"_. c #FCD8FC",
"`. c #FCB8FC",
"'. c #FC9CFC",
"]. c #FC7CFC",
"[. c #FC5CFC",
"{. c #FC40FC",
"}. c #FC20FC",
"|. c #FC00FC",
" X c #E000E4",
".X c #C800CC",
"XX c #B400B4",
"oX c #9C009C",
"OX c #840084",
"+X c #6C0070",
"@X c #580058",
"#X c #400040",
"$X c #FCE8DC",
"%X c #FCE0D0",
"&X c #FCD8C4",
"*X c #FCD4BC",
"=X c #FCCCB0",
"-X c #FCC4A4",
";X c #FCBC9C",
":X c #FCB890",
">X c #FCB080",
",X c #FCA470",
"<X c #FC9C60",
"1X c #F0945C",
"2X c #E88C58",
"3X c #DC8854",
"4X c #D08050",
"5X c #C87C4C",
"6X c #BC7848",
"7X c #B47044",
"8X c #A86840",
"9X c #A0643C",
"0X c #9C6038",
"qX c #905C34",
"wX c #885830",
"eX c #80502C",
"rX c #744C28",
"tX c #6C4824",
"yX c #5C4020",
"uX c #543C1C",
"iX c #483818",
"pX c #403018",
"aX c #382C14",
"sX c #28200C",
"dX c #600064",
"fX c #006464",
"gX c #006060",
"hX c #00001C",
"jX c #00002C",
"kX c #302410",
"lX c #480048",
"zX c #500050",
"xX c #000034",
"cX c gray11",
"vX c #4C4C4C",
"bX c gray36",
"nX c gray25",
"mX c gray19",
"MX c #343434",
"NX c #D8F4F4",
"BX c #B8E8E8",
"VX c #9CDCDC",
"CX c #74C8C8",
"ZX c #48C0C0",
"AX c #20B4B4",
"SX c #20B0B0",
"DX c #00A4A4",
"FX c #009898",
"GX c #008C8C",
"HX c #008484",
"JX c #007C7C",
"KX c #007878",
"LX c #007474",
"PX c #007070",
"IX c #006C6C",
"UX c #980088",
/* pixels */
"L.L.L.L.L.L.L.L.L.L.L.L.L.L.L.L.L.L.L.L.L.L.L.L.L.L.L.L.L.L.L.L.L.L.L.L.L.L.L.L.L.L.L.L.L.L.L.L.L.L.L.L.L.L.L.L.L.L.L.L.L.L.L.L.",
"$ $ $ $ $ $ 0 A.C.C.C.C.C.C.C.C.C.C.C.C.C.. . C.C.. . . . Z.. Z.Z.Z.S.0 0 0 0 0 0 0 0 0 0 0 0 0 0 0 0 0 0 0 $ $ $ $ $ $ $ $ $ $ ",
"$ $ $ $ $ $ 0 V.N.N.N.B.N.N.N.N.N.N.B.N.N.B.V.B.N.B.V.V.C.. C.. . Z.S.q q G.S.A.A.A.A.A.A.A.A.A.A.A.A.S.S.D.G.0 0 0 0 0 0 0 0 0 ",
"S.S.S.G.e $ 0 V.N.B.B.B.B.B.B.B.B.B.V.B.V.C.C.V.V.C.. . Z.Z.Z.A.A.A.S.q q S.V.B.B.B.B.B.B.B.B.B.B.B.B.B.V.C.Z.A.A.A.S.S.S.S.S.S.",
". . A.F.e $ 0 V.B.C.C.C.. . . C.C.. . . . Z.Z.. . Z.. . . A.A.A.A.A.S.q q S.B.N.B.B.B.B.B.B.B.B.B.B.B.B.B.B.B.V.V.V.C.C.C.C.C.C.",
". Z.S.G.e $ 0 C.B.. Z.. . Z.Z.Z.Z.Z.A.A.A.Z.Z.A.A.Z.. . Z.A.A.A.Z.A.S.q q S.B.B.C.. Z.Z.. . Z.Z.. . . . . C.. . Z.. . . . . Z.. ",
"Z.A.D.H.e $ 0 Z.C.Z.A.Z.Z.Z.A.A.A.A.A.A.A.Z.Z.A.A.Z.Z.Z.Z.A.A.A.Z.A.S.q q S.B.V.Z.A.A.A.A.A.A.A.A.A.A.A.A.A.A.A.A.A.A.Z.A.A.A.Z.",
"A.S.G.J.e $ 0 S.A.S.S.S.A.A.S.S.S.S.S.S.S.S.A.A.S.S.A.S.S.S.S.S.A.S.F.q q S.B.B.Z.A.A.A.A.A.A.A.A.A.A.A.A.A.S.A.A.A.A.A.A.A.A.A.",
"S.F.H.K.e $ 0 G.G.H.H.H.G.G.G.H.H.H.G.G.H.G.G.G.H.G.G.G.H.G.G.G.G.H.J.q q S.B.B.Z.A.A.A.A.A.A.A.A.A.A.A.A.A.A.A.A.A.A.A.A.A.A.A.",
"G.H.J.xXe $ 0 K.xXxXxXxXxXxXxXxXxXxXxXxXxXxXxXxXxXxXxXxXxXxXxXxXxXxXxX0 0 0 C.V.Z.A.A.A.A.A.A.A.A.A.A.A.A.A.A.S.S.A.S.A.A.A.S.S.",
"J.K.xXjXe $ 0 e e e e e e e e e e e e e e e e e e e e e e e e e e e e e $ 0 Z.. A.A.S.A.S.S.S.S.S.S.S.S.S.S.S.D.F.G.G.G.G.G.G.G.",
"xXe e e L.$ $ $ $ $ $ $ $ $ $ $ $ $ F.D.S.S.A.A.Z.. . . . . . . . . C.A.$ 0 A.A.D.D.F.G.G.G.G.G.G.G.G.G.G.G.H.H.J.J.J.J.J.J.J.J.",
"e L.L.L.L.$ $ $ $ (.S.. C.C.C.C.C.C.V.V.B.B.B.B.B.V.V.C.C.V.V.V.B.B.B.C.$ 0 F.G.G.H.J.J.J.J.J.J.J.J.J.J.J.J.K.xXxXxXjXjXjXjXjXjX",
"L.L.L.L.0 $ $ $ $ D.. V.V.V.V.C.C.C.C.V.V.V.V.V.C.Z.. Z.Z.. Z.Z.C.B.V.A.q q K.K.K.K.xXxXxXxXxXxXxXxXxXxXxXxXjXL.L.e e e e e e e ",
"q q q q q $ $ $ $ S.C.C.Z.Z.Z.A.A.A.A.A.Z.Z.. . . Z.Z.Z.Z.Z.Z.Z.. . Z.S.q L.L.L.L.L.L.L.L.L.L.L.L.L.L.L.L.L.L.q q q q q q q q q ",
"$ 0 q q q $ $ $ $ D.. . Z.A.A.A.A.A.A.A.A.Z.Z.Z.Z.Z.Z.Z.A.Z.Z.Z.Z.Z.A.S.q 0 $ $ $ $ $ $ q 0 $ $ $ $ 0 0 0 0 0 0 0 0 0 0 0 0 0 0 ",
"A.A.A.A.A.S.$ $ $ G.Z.C.Z.A.A.A.A.A.A.A.A.A.Z.. Z.Z.Z.Z.A.A.A.Z.. Z.A.S.q 0 $ $ $ $ $ $ $ F.A.V.V.C.. Z.A.A.A.A.A.A.A.A.A.A.A.A.",
"V.V.V.V.V.Z.$ $ $ H.S.. Z.A.A.A.A.A.A.A.S.S.A.Z.Z.Z.Z.A.A.A.A.. V.. A.D.q 0 h.V.C.h.$ $ q S.B.M.N.B.B.B.B.V.V.V.B.B.B.B.B.B.B.B.",
"C.. . . . A.q $ $ MXF.A.A.A.A.A.S.S.S.S.F.F.S.A.A.A.A.A.A.A.A.Z.. Z.S.G.q 0 V.V.. Z.A.$ q Z.N.N.V.C.. . Z.Z.Z.Z.C.V.V.V.V.V.V.V.",
"Z.A.A.A.A.S.q $ $ $ 0 D.S.D.D.F.F.G.G.G.H.H.G.F.F.F.F.F.F.F.F.D.D.F.G.).q 0 . Z.A.S.D.$ G.Z.N.B.. A.A.A.A.S.S.A.Z.Z.Z.A.A.A.A.Z.",
"Z.A.A.A.A.S.q $ $ $ 0 ).H.J.J.J.J.K.K.xXxXxXK.J.J.J.J.J.J.J.J.J.J.q q q 0 0 A.A.S.D.G.q G.Z.B.V.Z.Z.A.A.A.A.S.A.A.A.A.A.S.S.A.A.",
"Z.A.A.A.A.F.q $ $ $ 0 q q L.L.e e e e e e e L.L.L.L.L.L.L.L.L.L.L.q q 0 0 $ $ D.F.G.).q 0 S.C.. Z.A.A.A.A.A.A.A.A.A.A.A.S.S.A.A.",
"A.A.S.S.S.G.q $ $ $ $ $ $ q q q q q q q q q q q q q q 0 0 0 0 0 0 0 0 0 $ $ $ q q q q q 0 0 S.S.A.A.S.A.A.A.A.A.A.A.A.A.S.S.A.A.",
"A.A.S.S.F.J.e $ $ $ $ $ $ $ $ $ $ $ $ $ $ $ $ $ $ $ 0 0 0 0 0 0 0 0 0 0 0 0 $ $ $ $ $ $ $ 0 0 G.D.S.S.A.A.A.A.A.S.S.A.A.S.S.A.A.",
"A.A.A.S.G.xXe $ $ $ $ $ $ $ $ $ $ $ $ $ h.V.V.V.V.V.C.C.C.C.C.C.C.C.C.C.C.C.C.C.A.S.$ $ $ $ 0 0 G.G.F.S.A.A.A.A.S.S.S.S.S.A.A.A.",
"S.A.S.G.K.e q $ $ A.C.V.C.. Z.S.F.0 0 $ C.B.B.B.V.V.V.B.B.B.B.B.B.B.B.V.V.B.V.V.C.. . . A.S.$ $ $ H.H.F.S.S.D.S.S.D.G.G.F.D.S.S.",
"G.G.H.q e q $ $ A.B.B.B.V.C.Z.A.S.G.0 $ C.B.C.Z.Z.Z.Z.Z.. Z.Z.Z.Z.Z.Z.Z.Z.Z.Z.Z.. Z.. B.B.V.V.V.. $ $ $ 0 0 0 0 0 0 0 0 0 $ $ $ ",
"J.K.K.e q $ S.Z.V.B.C.. Z.Z.A.A.A.S.q 0 Z.V.Z.A.A.A.A.A.Z.A.A.A.A.A.A.A.A.A.A.A.A.A.A.. . . B.N.B.C.A.$ e e e e e e e e e q q 0 ",
"e e q $ 8 A.B.B.B.C.A.A.A.A.A.A.A.S.e q S.Z.A.A.A.A.A.A.A.A.S.A.A.S.A.A.A.A.A.A.A.A.A.A.A.A.Z.. . Z.A.D.J.e q q q q L.L.L.e e e ",
"0 8 8 7 h.B.N.B.V.. A.A.A.A.A.A.A.D.J.e 0 A.A.A.A.A.A.A.A.A.S.A.A.S.A.A.A.A.A.A.A.A.A.S.S.S.A.A.A.A.S.F.J.e H.Z.V.C.. Z.S.q q q ",
"8 h.. V.B.B.B.C.Z.A.A.A.A.A.A.A.A.D.J.e 0 A.A.A.A.A.A.A.A.A.A.A.A.A.A.A.S.A.A.A.A.A.S.S.S.S.A.S.A.A.S.G.K.e G.B.N.B.N.N.V.S.q $ ",
"8 Z.B.B.B.C.Z.A.A.A.A.A.S.S.A.A.A.S.J.e 0 D.A.A.A.A.S.A.A.A.A.A.A.S.A.A.S.A.A.A.A.A.A.A.S.S.A.S.A.A.S.H.xXe G.V.V.C.C.C.. S.q $ ",
"8 h.V.C.. A.A.A.A.A.A.A.A.A.A.A.A.D.J.e 0 0 S.A.A.A.S.A.A.A.A.A.A.S.A.A.A.S.A.A.A.A.A.A.S.S.A.A.A.A.D.H.xXL.G.C.C.Z.Z.A.A.F.q $ ",
"8 8 A.Z.A.A.A.A.A.A.A.A.A.A.A.A.S.G.K.e 0 0 0 S.A.A.A.A.A.S.A.A.A.S.A.A.A.S.A.A.A.A.A.A.A.A.S.S.A.A.D.J.xXL.G.V.C.Z.A.A.S.G.q 0 ",
"8 0 F.S.S.S.A.A.S.S.S.S.S.S.D.F.G.J.e q 0 0 e G.F.F.F.S.S.S.A.A.A.A.A.A.A.A.A.A.S.A.A.A.S.A.S.S.A.A.F.J.jXL.G.C.. A.A.A.A.G.q 0 ",
"8 8 0 G.G.G.G.G.G.G.G.G.G.H.J.J.K.e q 0 $ $ q q q q q q J.H.F.S.D.D.S.S.D.D.S.S.F.D.S.S.S.S.A.A.A.A.G.K.jXL.H.C.. A.A.A.A.G.q 0 ",
"8 0 0 q q L.L.L.L.L.L.L.L.e e e e q 0 $ $ $ 0 0 e e e e e e K.J.K.K.J.J.K.K.J.J.K.J.J.J.G.G.D.S.S.D.H.xXcXL.H.h.A.S.S.S.S.H.q q ",
"8 $ $ $ $ 0 0 0 0 0 0 0 0 0 0 0 0 $ $ $ $ $ $ 0 0 0 q q q e e e e e e e e e e e e e e e e q q q q q q q q e K.H.H.H.H.H.J.K.q q ",
"8 h.V.V.C.C.C.C.C.C.C.. . . . . . Z.A.S.$ $ $ $ $ $ 0 0 0 q q q q q e e e e e e e e e e e e e e e e e e e e e e e e e e e e e q ",
"8 V.N.B.B.V.V.V.C.C.C.. Z.Z.. . . Z.A.A.G.$ e e L.0 0 $ $ $ $ $ $ $ $ q L.L.q L.L.q 0 $ $ 0 0 0 0 0 0 0 0 0 q q q q q q q q q q ",
"8 V.B.C.. Z.Z.A.A.A.A.A.A.A.A.A.A.A.A.A.F.J.e e L.0 0 0 q q q q q 0 0 0 $ $ $ 0 0 0 0 $ $ D.S.S.S.S.S.S.S.S.S.S.S.S.D.D.D.G.q $ ",
"8 V.V.Z.A.Z.A.A.A.A.A.A.A.A.A.A.A.S.A.A.F.J.L.e L.q G.D.S.S.S.S.S.S.S.S.S.S.S.S.S.S.A.A.Z.C.V.V.V.V.V.V.V.V.V.V.V.V.V.C.Z.F.q $ ",
"8 C.V.. Z.Z.Z.Z.A.A.A.A.S.A.A.A.A.A.A.S.F.J.L.e e q F.Z.V.V.V.V.V.V.V.V.V.V.V.V.B.B.B.N.M.M.M.M.M.M.M.M.M.N.M.M.N.N.B.B.A.G.L.0 ",
"8 C.V.. Z.A.Z.Z.A.A.A.A.A.A.A.A.A.A.A.S.G.J.xXe e e D.C.B.N.M.M.M.M.M.N.M.M.N.M.M.M.M.M.M.N.N.B.B.B.B.B.B.V.B.B.B.B.V.. S.H.L.0 ",
"8 . C.Z.A.A.A.A.Z.Z.A.A.A.A.A.A.A.A.A.S.G.J.xXe e e F.C.B.B.B.B.B.B.V.V.B.B.V.B.B.B.B.B.V.C.. Z.Z.Z.. . Z.A.Z.. . . Z.A.D.J.L.q ",
"0 A.Z.Z.A.A.A.Z.Z.Z.Z.A.A.A.A.A.A.A.A.S.F.J.xXe e e G.C.B.V.Z.A.Z.Z.A.Z.Z.Z.. . Z.Z.Z.. . Z.A.A.A.A.A.Z.A.A.A.A.Z.Z.Z.A.F.J.L.q ",
"0 A.A.A.A.S.A.A.A.A.A.A.A.A.A.A.A.A.A.S.F.J.xXe e e H.. N.B.Z.A.A.A.A.A.A.A.Z.A.A.A.Z.Z.A.A.A.A.A.A.A.A.A.A.A.A.A.A.A.A.F.J.L.q ",
"0 G.F.G.G.G.S.S.S.S.S.S.A.S.S.S.S.S.S.F.G.J.xXe e e L.Z.N.B.. A.A.A.A.A.A.A.A.A.A.A.A.Z.A.A.A.A.A.A.A.A.A.S.S.A.A.A.A.S.F.J.e q ",
"0 q e e e J.H.H.H.G.G.G.G.G.G.G.G.G.G.H.J.J.xXe e e L.A.B.B.. A.A.A.A.A.A.A.A.S.S.A.A.A.A.A.A.A.A.A.A.A.S.S.S.A.A.A.S.S.F.J.e q ",
"$ $ $ 0 q e e L.e xXxXxXxXxXxXxXxXxXxXxXxXxXjXe e e L.S.C.C.A.A.A.A.A.A.A.A.A.A.S.A.A.A.A.A.A.A.S.A.A.A.A.A.A.S.A.A.S.S.F.J.e q ",
"0 0 0 0 0 0 0 L.L.L.e e e e e e e e e e e e e e e e L.F.S.D.F.G.G.G.G.F.S.S.A.A.A.S.S.S.S.S.S.S.S.A.A.A.A.A.A.S.S.S.S.S.F.J.e q ",
"0 D.A.A.Z.A.A.S.F.0 0 $ q q L.L.L.L.L.L.L.L.L.L.L.L.q $ 0 q q L.L.L.L.L.H.G.D.D.D.D.D.D.D.D.D.D.D.D.D.D.D.D.D.D.D.D.D.F.G.K.e q ",
"0 A.V.B.B.B.B.B.C.Z.A.S.D.G.G.H.q q q q q q q q q q 0 $ 0 0 q q q q q q L.J.J.J.H.J.J.J.J.J.J.J.J.J.J.J.J.J.J.J.J.J.J.J.J.e L.q ",
"0 A.B.B.C.C.B.B.B.B.B.V.. Z.Z.Z.A.A.A.A.A.S.S.S.S.F.8 8 $ $ 0 0 0 0 0 q q L.L.L.L.L.L.L.L.L.L.L.L.L.e e e e e e e e e e e L.q 0 ",
"0 Z.B.C.. . . C.. C.V.B.B.B.B.B.B.B.B.B.V.V.V.C.C.C.. Z.Z.Z.A.A.F.0 $ 0 q q q q q q q q q L.L.L.L.L.L.L.L.L.L.L.L.L.L.L.q q 0 0 ",
"0 A.B.C.Z.Z.A.A.A.A.A.Z.. . . . . Z.. C.. . . . C.C.V.B.B.B.V.Z.D.q 0 $ 0 A.C.C.. . . . . Z.Z.Z.Z.Z.Z.. . Z.Z.Z.Z.Z.Z.. C.A.0 $ ",
"0 A.B.C.Z.Z.A.A.A.A.A.A.Z.A.A.A.A.S.A.A.A.A.A.A.Z.Z.. . C.C.. S.G.e q $ 0 . B.B.B.C.C.C.. C.. . . . . C.C.. C.. . . . C.B.. $ $ ",
"0 A.. A.A.A.S.S.S.A.S.A.A.S.S.S.S.S.S.S.S.S.S.S.A.A.A.A.A.A.S.F.J.e q 0 0 . B.V.V.. Z.A.Z.Z.Z.Z.Z.Z.Z.Z.Z.Z.Z.Z.Z.Z.Z.Z.Z.S.0 $ ",
"0 S.S.F.G.G.G.G.G.G.G.G.G.G.G.G.G.G.G.G.G.G.G.G.G.G.G.G.G.G.G.J.J.jXe q 0 . V.C.C.Z.A.A.Z.Z.Z.Z.A.Z.Z.Z.Z.. Z.Z.Z.Z.Z.. . D.e $ ",
"0 G.G.K.K.xXxXxXxXxXxXxXxXxXxXxXxXxXxXxXxXxXxXxXxXxXxXxXxXxXxXxXxXjXe L.0 S.A.A.A.A.A.A.A.A.A.Z.A.A.Z.Z.Z.Z.Z.A.Z.Z.Z.Z.A.G.e $ ",
"0 q e e e e e e e e e e e e e e e e e e e e e e e e e e e e e e e e e L.0 q 0 q G.G.G.G.G.F.S.A.A.S.S.A.A.A.S.A.S.A.A.S.D.J.e $ ",
"$ 0 q q q L.L.L.L.L.L.L.L.L.L.L.L.L.L.L.L.L.L.L.L.L.L.L.L.L.L.L.L.L.L.L.q $ $ q q e e e e e q H.H.H.H.H.H.H.H.H.H.H.H.H.J.K.e $ ",
"$ $ $ $ 0 0 0 0 0 0 0 0 q q q q q q q q q q q q q q q q q q q q q q q q q $ $ $ $ q q q q q q e e e e e e e e e e e e e e e e $ ",
"q q q q q q q q q q q q q q q q q q q q q q q q q q q q q q q q q q q q q q q q q q q q q q q q q q q q q q q q q q q q q q q q "
};
